<?xml version="1.0" standalone="no"?>
<!DOCTYPE svg PUBLIC "-//W3C//DTD SVG 1.1//EN" "http://www.w3.org/Graphics/SVG/1.1/DTD/svg11.dtd">
<svg xmlns="http://www.w3.org/2000/svg" id="a" data-name="Layer 1" width="360" height="100" viewBox="0 0 360 100">
  <path d="M308.055,60.316l24.84-9.05.409-.18c6.822-3.44,11.059-10.242,11.059-17.746v-3.693c0-8.838-7.352-16.024-16.388-16.024h-24.634c-.99,0-1.891.565-2.3,1.445l-2.742,5.832h29.675c4.933,0,8.944,3.927,8.944,8.747v3.693c0,4.699-2.615,8.966-6.841,11.184l-24.619,8.973c-6.434,2.344-10.76,8.425-10.76,15.142l-.004,11.773c0,2.097,1.74,3.799,3.88,3.799h45.172v-7.279h-41.609l.004-8.288c.004-3.693,2.378-7.036,5.914-8.327" fill="#fff" stroke-width="0"/>
  <polygon points="159.604 14.553 159.604 85.142 203.256 85.142 203.256 77.934 166.974 77.934 166.974 14.553 159.604 14.553" fill="#fff" stroke-width="0"/>
  <g>
    <path d="M92.704,71.003c5.411,5.626,12.159,8.44,20.243,8.44s14.83-2.814,20.243-8.44c5.479-5.695,8.219-12.696,8.219-21.002s-2.74-15.307-8.219-21.002c-5.413-5.628-12.161-8.442-20.243-8.442s-14.832,2.814-20.243,8.442c-5.481,5.695-8.221,12.696-8.221,21.002s2.74,15.307,8.221,21.002M87.052,24.074c6.919-6.967,15.551-10.45,25.895-10.45,10.275,0,18.872,3.483,25.791,10.45,6.919,6.967,10.379,15.61,10.379,25.926,0,10.385-3.46,19.059-10.379,26.027-6.85,6.9-15.448,10.35-25.791,10.35-10.415,0-19.045-3.449-25.895-10.35-6.85-6.9-10.275-15.577-10.275-26.027,0-10.383,3.425-19.026,10.275-25.926" fill="#fff" stroke-width="0"/>
    <path d="M46.452,77.937h-23.677l-.004-28.066.004-28.064h18.77c9.887,0,15.333,4.315,15.333,12.15,0,7.9-5.446,12.254-15.333,12.254l-7.956-.002c-.853,0-1.627.459-1.974,1.218l-2.703,5.951,12.156-.004c.345,0,.691-.022,1.036-.032l.184.009c9.887,0,19.5,4.536,19.5,12.436,0,7.835-5.446,12.15-15.335,12.15M57.417,48.465c3.958-3.098,6.613-7.807,6.613-14.605,0-11.878-8.682-19.256-22.657-19.256H15.637v70.537h30.643c13.976,0,22.659-7.376,22.659-19.256,0-9.336-4.985-14.752-11.522-17.419Z" fill="#fff" stroke-width="0"/>
    <path d="M257.315,20.332l2.71-5.779h-63.299v7.207l27.416.02v63.36h7.37V21.76h23.525c.981,0,1.869-.557,2.277-1.428" fill="#fff" stroke-width="0"/>
  </g>
</svg>