<?xml version="1.0" standalone="no"?>
<!DOCTYPE svg PUBLIC "-//W3C//DTD SVG 1.1//EN" "http://www.w3.org/Graphics/SVG/1.1/DTD/svg11.dtd">
<svg xmlns="http://www.w3.org/2000/svg" id="a" data-name="Layer 1" width="430" height="100" viewBox="0 0 430 100">
  <g>
    <path d="M149.521,86.345h39.584c.866,0,1.653-.505,2.006-1.289l2.749-6.137h-36.852V13.624h-7.487v72.721Z" fill="#fff" stroke-width="0"/>
    <path d="M239.599,50.046l-32.301-9.339c-2.673-.789-4.54-3.269-4.54-6.037v-6.581c0-3.882,3.184-7.038,7.095-7.038h36.48v-7.428h-36.733c-7.902,0-14.33,6.377-14.33,14.215v7.283c0,5.762,3.89,10.933,9.46,12.577l32.301,9.339c2.673.788,4.54,3.269,4.54,6.035v8.806c0,3.882-3.184,7.04-7.097,7.04h-31.529c-.866,0-1.653.507-2.006,1.291l-2.749,6.135h36.538c7.902,0,14.328-6.377,14.328-14.213v-9.506c0-5.766-3.89-10.937-9.458-12.579" fill="#fff" stroke-width="0"/>
    <path d="M128.905,13.624v58.255c0,3.88-3.184,7.04-7.097,7.04h-27.656c-3.914,0-7.097-3.16-7.097-7.04V13.624h-7.487v58.506c0,7.838,6.429,14.213,14.33,14.213h28.165c7.902,0,14.328-6.375,14.328-14.213V13.624h-7.486Z" fill="#fff" stroke-width="0"/>
    <path d="M71.346,33.484h0c0-12.252-8.829-19.86-23.042-19.86h-26.448c-.282,0-.565.017-.849.048-3.464.41-6.076,3.395-6.076,6.945v65.76h7.263l-.009-65.325h26.294c10.056,0,15.595,4.45,15.595,12.532,0,8.149-5.539,12.638-15.595,12.638l-16.36-.002c-.866,0-1.653.474-2.006,1.258l-2.749,6.137,20.632-.004c11.329,0,23.35-5.283,23.35-20.127" fill="#fff" stroke-width="0"/>
    <path d="M269.439,21.049h44.846v-7.426h-45.211c-.267,0-.542.017-.815.048-3.46.41-6.072,3.394-6.072,6.943v58.738c0,3.55,2.612,6.533,6.072,6.943.273.032.548.048.815.048h45.211v-7.426h-44.846v-25.221h31.64c.866,0,1.653-.507,2.006-1.291l2.749-6.135h-36.395v-25.222Z" fill="#fff" stroke-width="0"/>
  </g>
  <path d="M378.441,60.315l24.84-9.05.409-.18c6.822-3.44,11.059-10.242,11.059-17.746v-3.693c0-8.838-7.352-16.024-16.388-16.024h-24.634c-.99,0-1.891.565-2.3,1.445l-2.742,5.832h29.675c4.933,0,8.944,3.927,8.944,8.747v3.693c0,4.699-2.615,8.966-6.841,11.184l-24.619,8.973c-6.434,2.344-10.76,8.425-10.76,15.142l-.004,11.773c0,2.097,1.74,3.799,3.88,3.799h45.172v-7.279h-41.609l.004-8.288c.004-3.693,2.378-7.036,5.914-8.327" fill="#fff" stroke-width="0"/>
</svg>