<?xml version="1.0" encoding="UTF-8"?>
<svg xmlns="http://www.w3.org/2000/svg" version="1.1" viewBox="0 0 770 100">
  <defs>
    <style>
      .cls-1 {
        fill: #fff;
      }
    </style>
  </defs>
  <!-- Generator: Adobe Illustrator 28.6.0, SVG Export Plug-In . SVG Version: 1.2.0 Build 709)  -->
  <g>
    <g id="a">
      <g>
        <path class="cls-1" d="M703.4,61.6l25.8-9.2.4-.2c7.1-3.5,11.5-10.5,11.5-18.1v-3.8c0-9-7.6-16.4-17-16.4h-25.6c-1,0-2,.6-2.4,1.5l-2.8,6h30.8c5.1,0,9.3,4,9.3,8.9v3.8c0,4.8-2.7,9.2-7.1,11.4l-25.6,9.2c-6.7,2.4-11.2,8.6-11.2,15.5v12c0,2.1,1.8,3.9,4,3.9h46.9v-7.4h-43.2v-8.5c0-3.8,2.5-7.2,6.2-8.5h0Z"/>
        <path class="cls-1" d="M494.5,47.5l-2.8,6.1h23.8v18.1c0,3.8-3.3,7-7.3,7h-22.4c-4,0-7.3-3.1-7.3-7V28.3c0-3.9,3.3-7,7.3-7h34.9v-7.4h-35.2c-8.1,0-14.7,6.3-14.7,14.1v43.9c0,7.8,6.6,14.1,14.7,14.1h22.9c8.1,0,14.7-6.3,14.7-14.1v-25.7h-26.6c-.9,0-1.7.5-2.1,1.3h0Z"/>
        <path class="cls-1" d="M116.8,13.9h-26.3c-.9,0-1.7.5-2.1,1.3l-2.8,6.1h31.2v64.8h7.7V21.3h28.5v-7.4h-36.2Z"/>
      </g>
      <polygon class="cls-1" points="392.9 13.9 392.9 86 438.3 86 438.3 78.7 400.6 78.7 400.6 13.9 392.9 13.9"/>
      <rect class="cls-1" x="234.9" y="13.9" width="7.7" height="72.1"/>
      <rect class="cls-1" x="446.3" y="13.9" width="7.7" height="72.1"/>
      <g>
        <path class="cls-1" d="M74.2,50.2l-33-9.3c-2.7-.8-4.6-3.2-4.6-6v-6.6c0-3.9,3.3-7,7.3-7h32.3c.9,0,1.7-.5,2.1-1.3l2.8-6.1h-37.4c-8.1,0-14.7,6.3-14.7,14.1v7.3c0,5.7,4,10.8,9.7,12.5l33,9.3c2.7.8,4.6,3.2,4.6,6v8.6c0,3.8-3.3,7-7.3,7H31.7v7.4h37.6c8.1,0,14.7-6.3,14.7-14.1v-9.3c0-5.7-4-10.8-9.7-12.5h0Z"/>
        <path class="cls-1" d="M218.7,33.6c0-12.2-9-19.7-23.6-19.7h-34.1s0,72.2,0,72.2h7.4V21.3s26.9,0,26.9,0c10.3,0,16,4.4,16,12.4s-5.7,12.5-16,12.5h-16.8c-.9,0-1.7.5-2.1,1.2l-2.8,6.1h12.2l23.2,32.3h9.7l-23.6-32.3c11.5-.1,23.5-5.4,23.5-20h0Z"/>
        <path class="cls-1" d="M378.1,21.3v-7.4h-46.3c-.3,0-.6,0-.8,0-3.5.4-6.2,3.4-6.2,6.9v58.3c0,3.5,2.7,6.5,6.2,6.9.3,0,.6,0,.8,0h46.3v-7.4h-45.9v-25h32.4c.9,0,1.7-.5,2.1-1.3l2.8-6.1h-37.2v-25s45.9,0,45.9,0Z"/>
      </g>
      <g>
        <rect class="cls-1" x="261.7" y="13.9" width="7.7" height="72.1"/>
        <path class="cls-1" d="M282.7,50l31.8-36.1h-6.9c-1.8,0-3.5.7-4.6,2l-30.3,34h0s30.2,34,30.2,34c1.2,1.3,2.8,2,4.6,2h6.9l-31.8-36.1h0Z"/>
      </g>
      <rect class="cls-1" x="539.5" y="13.9" width="7.7" height="72.1"/>
      <path class="cls-1" d="M584.3,13.9v32.3h-26.8c-.9,0-1.7.5-2.1,1.2l-2.8,6.1h31.7s0,32.5,0,32.5h7.7V13.9h-7.7Z"/>
      <path class="cls-1" d="M662.7,19.8l2.8-5.9h-63.5v7.4h26.2v64.8h7.7V21.3h24.4c1,0,1.9-.6,2.4-1.5"/>
    </g>
  </g>
</svg>