<?xml version="1.0" standalone="no"?>
<!DOCTYPE svg PUBLIC "-//W3C//DTD SVG 1.1//EN" "http://www.w3.org/Graphics/SVG/1.1/DTD/svg11.dtd">
<svg xmlns="http://www.w3.org/2000/svg" id="a" data-name="Layer 1" width="770" height="100" viewBox="0 0 770 100">
  <g>
    <path d="M703.387,61.632l25.815-9.248.424-.182c7.088-3.514,11.49-10.465,11.49-18.133v-3.774c0-9.027-7.64-16.372-17.027-16.372h-25.603c-1.027,0-1.96.576-2.389,1.473l-2.846,5.964h30.838c5.125,0,9.293,4.01,9.293,8.934v3.774c0,4.803-2.719,9.161-7.11,11.427l-25.583,9.167c-6.689,2.396-11.182,8.613-11.184,15.473l-.004,12.033c0,2.14,1.811,3.878,4.034,3.878h46.94v-7.437h-43.238l.004-8.47c0-3.773,2.47-7.19,6.146-8.507Z" fill="#000" stroke-width="0"/>
    <path d="M494.538,47.529l-2.814,6.085h23.827v18.086c0,3.847-3.256,6.979-7.259,6.979h-22.401c-4.003,0-7.261-3.132-7.261-6.979l-.002-43.431c0-3.851,3.258-6.982,7.263-6.982h34.948v-7.363h-35.208c-8.084,0-14.661,6.321-14.661,14.094v43.929c0,7.773,6.577,14.098,14.661,14.098h22.919c8.084,0,14.661-6.325,14.661-14.098v-25.704l-26.621.037c-.886,0-1.692.47-2.052,1.248Z" fill="#000" stroke-width="0"/>
    <path d="M116.844,13.923h-26.317c-.886,0-1.692.501-2.054,1.278l-2.812,6.087h31.184v64.758h7.66V21.286h28.49v-7.363h-36.15Z" fill="#000" stroke-width="0"/>
  </g>
  <polygon points="392.914 13.924 392.914 86.046 438.277 86.046 438.277 78.681 400.573 78.681 400.573 13.924 392.914 13.924" fill="#000" stroke-width="0"/>
  <rect x="234.939" y="13.924" width="7.66" height="72.121" fill="#000" stroke-width="0"/>
  <rect x="446.277" y="13.924" width="7.658" height="72.121" fill="#000" stroke-width="0"/>
  <g>
    <path d="M74.234,50.162l-33.046-9.261c-2.736-.784-4.646-3.245-4.646-5.988v-6.642c0-3.851,3.258-6.984,7.263-6.984h32.255c.886,0,1.692-.502,2.052-1.278l2.814-6.085h-37.381c-8.086,0-14.661,6.323-14.661,14.096v7.339c0,5.717,3.979,10.848,9.677,12.475l33.048,9.263c2.734.782,4.644,3.241,4.644,5.985v8.619c0,3.849-3.258,6.98-7.261,6.98H31.672v7.365h37.578c8.085,0,14.663-6.325,14.663-14.096v-9.313c0-5.715-3.979-10.844-9.679-12.473Z" fill="#000" stroke-width="0"/>
    <path d="M218.712,33.621c0-12.151-9.033-19.696-23.573-19.696l-34.144-.002v72.155h7.43l-.009-64.786h26.902c10.289,0,15.954,4.415,15.954,12.428,0,8.082-5.665,12.534-15.954,12.534l-16.806-.002c-.886,0-1.692.47-2.054,1.248l-2.812,6.083h12.206s23.247,32.334,23.247,32.334h9.694l-23.576-32.34c11.472-.117,23.496-5.4,23.496-19.957Z" fill="#000" stroke-width="0"/>
    <path d="M378.148,21.287v-7.365h-46.255c-.271,0-.554.017-.834.048-3.54.407-6.211,3.366-6.211,6.886v58.255c0,3.52,2.671,6.479,6.211,6.886.28.032.563.048.834.048h46.255v-7.365h-45.881v-25.014h32.37c.886,0,1.692-.502,2.052-1.278l2.814-6.087h-37.236v-25.014h45.881Z" fill="#000" stroke-width="0"/>
  </g>
  <g>
    <rect x="261.744" y="13.924" width="7.658" height="72.121" fill="#000" stroke-width="0"/>
    <path d="M282.665,49.984l31.756-36.06h-6.899c-1.774,0-3.46.747-4.612,2.043l-30.254,34.017.005.004,30.247,34.014c1.153,1.298,2.84,2.045,4.614,2.045h6.899l-31.756-36.064Z" fill="#000" stroke-width="0"/>
  </g>
  <rect x="539.544" y="13.924" width="7.66" height="72.121" fill="#000" stroke-width="0"/>
  <path d="M584.255,13.924v32.328h-26.829c-.886,0-1.69.47-2.052,1.248l-2.812,6.085,31.694-.002v32.462h7.66V13.924h-7.66Z" fill="#000" stroke-width="0"/>
  <path d="M662.706,19.828l2.818-5.905h-63.469v7.365l26.179.02v64.738h7.658V21.286h24.448c1.018,0,1.941-.568,2.366-1.458" fill="#000" stroke-width="0"/>
</svg>